<?xml version="1.0" encoding="UTF-8"?>
<svg version="1.1"
     xmlns="http://www.w3.org/2000/svg"
     width="1024"
     height="1024"
     viewBox="0 0 1024 1024">

  <title>Bird Icon Monochrome</title>
  <desc>Stylized bird silhouette in black - Android Monochrome Adaptive Icon</desc>

  <!-- Bird icon (centered) - monochrome black on transparent -->
  <g transform="translate(249.856, 242.688)">
    <!-- Main bird body -->
    <g id="bird-body" fill="#000000">
      <path d="M0 0 C20.8684031 17.48339457 34.80903981 39.67154835 41.625 66 C41.625 66.66 41.625 67.32 41.625 68 C42.7080542 68.39155273 42.7080542 68.39155273 43.81298828 68.79101562 C46.720912 70.041236 49.03660302 71.51635046 51.6171875 73.34375 C52.56279541 74.00858398 53.50840332 74.67341797 54.48266602 75.35839844 C55.97624634 76.41849121 55.97624634 76.41849121 57.5 77.5 C59.56821977 78.9542501 61.63723131 80.40737479 63.70703125 81.859375 C64.71588379 82.56771484 65.72473633 83.27605469 66.76416016 84.00585938 C72.64874492 88.10769317 78.63594137 92.05318741 84.625 96 C86.62657282 97.33099226 88.62591435 98.66527214 90.625 100 C90.50170898 101.8269043 90.50170898 101.8269043 89.625 104 C87.04321289 105.44458008 87.04321289 105.44458008 83.59765625 106.76953125 C82.9810463 107.01162827 82.36443634 107.25372528 81.72914124 107.50315857 C79.72065551 108.28774664 77.70451826 109.05014831 75.6875 109.8125 C74.31504101 110.34395574 72.94313292 110.87683632 71.57177734 111.41113281 C68.85295959 112.46765755 66.13110458 113.51559963 63.40576172 114.55517578 C59.28781661 116.12603959 55.18344821 117.73074202 51.07983398 119.33862305 C47.9323339 120.56985199 44.77924603 121.7861709 41.625 123 C41.61041748 123.74644775 41.59583496 124.49289551 41.58081055 125.26196289 C40.08641507 194.70646775 24.64221731 263.10265153 -20.375 318 C-20.80151855 318.52803223 -21.22803711 319.05606445 -21.66748047 319.60009766 C-33.99050693 334.79442099 -47.84352707 349.20285315 -63.67578125 360.74951172 C-65.45221159 362.05682152 -67.19527442 363.40141389 -68.9375 364.75390625 C-77.53936579 371.35501798 -86.54801626 376.73436856 -96.12402344 381.80029297 C-98.31793303 382.96958491 -100.49223922 384.16917572 -102.6640625 385.37890625 C-112.57648465 390.84735463 -122.70752726 395.21869237 -133.375 399 C-134.16390625 399.28391602 -134.9528125 399.56783203 -135.765625 399.86035156 C-136.55453125 400.13588867 -137.3434375 400.41142578 -138.15625 400.6953125 C-139.22456055 401.07067139 -139.22456055 401.07067139 -140.31445312 401.45361328 C-142.375 402 -142.375 402 -146.375 402 C-146.14949463 402.50112305 -145.92398926 403.00224609 -145.69165039 403.51855469 C-145.0051168 405.04418489 -144.3185945 406.56982016 -143.63208008 408.09545898 C-142.8260087 409.88667381 -142.01985443 411.67785133 -141.21362305 413.46899414 C-139.13530084 418.08654867 -137.05816223 422.70462555 -134.984375 427.32421875 C-134.59886475 428.18241211 -134.21335449 429.04060547 -133.81616211 429.92480469 C-133.09248664 431.53589443 -132.36929807 433.14720302 -131.64672852 434.75878906 C-128.60475251 441.52831752 -125.49291822 448.26516551 -122.375 455 C-120.74703491 454.99214478 -120.74703491 454.99214478 -119.08618164 454.98413086 C-115.07382018 454.96608164 -111.06146233 454.95456829 -107.04907227 454.94506836 C-105.30980832 454.94002796 -103.57054864 454.9331957 -101.83129883 454.92456055 C-99.33674063 454.91248208 -96.84223827 454.90676892 -94.34765625 454.90234375 C-93.56536148 454.89718246 -92.78306671 454.89202118 -91.97706604 454.88670349 C-90.10932886 454.88650774 -88.24170796 454.93800306 -86.375 455 C-85.375 456 -85.375 456 -85.26147461 458.86743164 C-85.26671143 460.11903076 -85.27194824 461.37062988 -85.27734375 462.66015625 C-85.27984131 463.87582275 -85.28233887 465.09148926 -85.28491211 466.34399414 C-85.29856812 468.67965454 -85.29856812 468.67965454 -85.3125 471.0625 C-85.333125 475.991875 -85.35375 480.92125 -85.375 486 C-103.855 486 -122.335 486 -141.375 486 C-150.56311018 467.62377965 -150.56311018 467.62377965 -153.26953125 461.625 C-153.58399704 460.93481277 -153.89846283 460.24462555 -154.22245789 459.53352356 C-155.21350954 457.35689992 -156.20055436 455.17848797 -157.1875 453 C-157.88119833 451.47471154 -158.57521286 449.94956685 -159.26953125 448.42456055 C-160.65170978 445.38821942 -162.03262817 442.35131053 -163.41259766 439.31396484 C-166.21905885 433.14023146 -169.04651279 426.9761681 -171.875 420.8125 C-172.7604427 418.88152236 -173.64586242 416.95053417 -174.53125 415.01953125 C-175.14580499 413.6796745 -175.76037586 412.33982503 -176.375 411 C-177.48875 411.13277344 -178.6025 411.26554687 -179.75 411.40234375 C-181.29164127 411.58094853 -182.83330946 411.75932101 -184.375 411.9375 C-185.09945312 412.02451172 -185.82390625 412.11152344 -186.5703125 412.20117188 C-194.48435813 413.10659235 -202.42514244 413.54197083 -210.375 414 C-208.97363356 419.67942148 -207.56770616 425.35768635 -206.1574707 431.03491211 C-205.67801225 432.96786617 -205.19981918 434.90113455 -204.72290039 436.8347168 C-204.03861723 439.60808875 -203.34984558 442.38031198 -202.66015625 445.15234375 C-202.44657974 446.02213364 -202.23300323 446.89192352 -202.01295471 447.78807068 C-201.32534398 451.70967374 -201.32534398 451.70967374 -199.375 455 C-196.93834341 455.07609796 -194.52981988 455.09083119 -192.09375 455.0625 C-191.00072571 455.05682007 -191.00072571 455.05682007 -189.88562012 455.05102539 C-187.54868809 455.0387646 -185.21187671 455.02013309 -182.875 455 C-179.80208675 454.97352567 -176.72923376 454.95346885 -173.65625 454.9375 C-172.94271362 454.92920166 -172.22917725 454.92090332 -171.49401855 454.91235352 C-169.78745049 454.90377832 -168.08075796 454.94672836 -166.375 455 C-165.375 456 -165.375 456 -165.26147461 458.86743164 C-165.26671143 460.11903076 -165.27194824 461.37062988 -165.27734375 462.66015625 C-165.27984131 463.87582275 -165.28233887 465.09148926 -165.28491211 466.34399414 C-165.29856812 468.67965454 -165.29856812 468.67965454 -165.3125 471.0625 C-165.333125 475.991875 -165.35375 480.92125 -165.375 486 C-184.515 486 -203.655 486 -223.375 486 C-224.92109389 482.13476527 -226.0618712 478.64207804 -227.07080078 474.63671875 C-227.39098175 473.37190674 -227.71116272 472.10709473 -228.04104614 470.80395508 C-228.38438519 469.43186599 -228.72746779 468.0597127 -229.0703125 466.6875 C-229.42604051 465.27169397 -229.78190816 463.85592302 -230.13790894 462.44018555 C-230.88165227 459.47863276 -231.62261133 456.51639957 -232.36181641 453.55371094 C-233.30812233 449.76258428 -234.26300828 445.97367778 -235.22020149 442.18528748 C-235.95690967 439.26433165 -236.68820198 436.34203998 -237.41796494 433.41934204 C-237.7677542 432.0218752 -238.11941254 430.62487477 -238.47299576 429.22836304 C-238.96694755 427.27474838 -239.45264287 425.3190518 -239.93798828 423.36328125 C-240.21619415 422.25251221 -240.49440002 421.14174316 -240.78103638 419.99731445 C-241.32880807 417.23309802 -241.49490083 414.80656756 -241.375 412 C-242.07238281 411.99742187 -242.76976562 411.99484375 -243.48828125 411.9921875 C-272.08452131 410.94470618 -300.89945982 400.46642062 -326.375 388 C-327.15649414 387.62149902 -327.93798828 387.24299805 -328.74316406 386.85302734 C-346.41135161 378.20915008 -363.01906878 367.28474497 -378.375 355 C-379.37273437 354.2059375 -380.37046875 353.411875 -381.3984375 352.59375 C-389.51133282 345.96071937 -396.95176638 338.63300207 -404.375 331.25 C-405.12615585 330.50674469 -405.12615585 330.50674469 -405.89248657 329.74847412 C-420.67965008 315.08173862 -420.67965008 315.08173862 -422.20703125 308.3125 C-421.31648856 304.76705304 -421.06694947 304.36555885 -418.26171875 302.375 C-416.87668978 301.5578698 -415.47567265 300.76743082 -414.0625 300 C-412.57927323 299.13568064 -411.09620063 298.27109665 -409.61328125 297.40625 C-408.88447754 296.99375 -408.15567383 296.58125 -407.40478516 296.15625 C-397.95691453 290.77435016 -389.130303 284.4239568 -380.375 278 C-379.38040771 277.27683594 -379.38040771 277.27683594 -378.36572266 276.5390625 C-367.62671061 268.69747603 -357.90792146 260.13691855 -348.35449219 250.8984375 C-345.36356935 248.02998462 -342.30834692 245.23365185 -339.25 242.4375 C-335.39705242 238.90315594 -331.63747863 235.3033649 -327.9765625 231.5703125 C-326.19230294 229.82086777 -324.33103876 228.19284418 -322.4375 226.5625 C-319.62923653 224.14382221 -316.97529407 221.64100317 -314.375 219 C-311.89574673 216.48238304 -309.38059816 214.09909278 -306.6875 211.8125 C-302.32221812 208.0671398 -298.31119667 203.99338615 -294.29418945 199.88208008 C-291.48942269 197.0321102 -288.6299373 194.32206723 -285.59375 191.71875 C-280.59762773 187.40152664 -276.00636002 182.70153214 -271.375 178 C-269.66918982 176.26834421 -267.96089134 174.53913574 -266.25 172.8125 C-265.50492188 172.05582031 -264.75984375 171.29914063 -263.9921875 170.51953125 C-261.96272833 168.56579817 -259.91500391 166.72564279 -257.78076172 164.89257812 C-252.2988913 160.1305977 -247.16434586 155.01382031 -242.0078125 149.90625 C-241.21009745 149.11652046 -241.21009745 149.11652046 -240.39626694 148.31083679 C-237.58049283 145.52161372 -234.76829021 142.72884 -231.95849609 139.93359375 C-229.66333456 137.65172716 -227.36114654 135.37733749 -225.05224609 133.109375 C-202.85013737 111.29169533 -189.59366458 92.51443636 -181.99487305 61.96118164 C-174.17441593 31.0165356 -155.84350334 5.85168472 -128.39160156 -10.82275391 C-86.36380377 -35.35762569 -37.80114459 -29.15920329 0 0 Z M-73.375 57 C-77.60122715 63.03358475 -79.24522361 68.6472411 -78.375 76 C-76.47467426 83.7344468 -72.91542215 88.53215944 -66.375 93 C-60.32250884 96.60821588 -54.24501475 96.91016756 -47.375 96 C-39.97285905 93.75755618 -35.14111489 89.71793467 -31.375 83 C-28.49666349 76.93564273 -28.26235786 70.168887 -29.9921875 63.6875 C-32.7076255 57.53571125 -37.62371924 52.81763089 -43.6484375 49.8984375 C-54.65318655 45.87963836 -65.2301111 48.66118517 -73.375 57 Z M-133.375 177 C-133.43969482 177.6077124 -133.50438965 178.2154248 -133.57104492 178.84155273 C-137.53939041 215.00629437 -150.78667593 245.95093174 -179.8125 269.375 C-205.32598684 289.44317881 -237.03919956 298.06463687 -269.24951172 294.69970703 C-279.51943079 293.23310953 -288.90121305 290.41527822 -298.30859375 286.07421875 C-301.77331219 284.86046388 -302.99421141 284.62770479 -306.375 286 C-308.77967894 287.70975052 -310.94295867 289.64262648 -313.125 291.625 C-314.36058235 292.71772729 -315.5975626 293.80887599 -316.8359375 294.8984375 C-317.43631836 295.42920898 -318.03669922 295.95998047 -318.65527344 296.50683594 C-322.10124038 299.49881973 -325.72778524 302.25976457 -329.375 305 C-316.48007777 320.15839262 -286.79507897 324.97556912 -268.05908203 326.7890625 C-232.65749396 329.57121386 -197.33041883 320.91272584 -168.375 300 C-167.54572998 299.40977051 -167.54572998 299.40977051 -166.69970703 298.80761719 C-137.57703326 277.82721702 -117.77277223 249.17540065 -107.375 215 C-107.16117676 214.30841797 -106.94735352 213.61683594 -106.72705078 212.90429688 C-103.35516965 201.72891941 -101.41813149 189.69502231 -101.375 178 C-102.48847596 176.66003068 -102.48847596 176.66003068 -105.33422852 176.88647461 C-107.27446899 176.89432983 -107.27446899 176.89432983 -109.25390625 176.90234375 C-109.9405687 176.9037587 -110.62723114 176.90517365 -111.33470154 176.90663147 C-113.53567801 176.91224521 -115.73655409 176.92479993 -117.9375 176.9375 C-119.42643083 176.94251324 -120.91536324 176.94707645 -122.40429688 176.95117188 C-126.06123075 176.96221907 -129.71810558 176.97949287 -133.375 177 Z"
            transform="translate(421.375,26)"/>
    </g>

    <!-- Bird wing detail -->
    <g id="bird-wing" fill="#000000">
      <path d="M0 0 C3.93106638 1.91754104 7.6112804 4.17691769 11.3125 6.5 C12.02108154 6.94359863 12.72966309 7.38719727 13.4597168 7.84423828 C18.75500248 11.17667215 23.96638298 14.62090447 29.1550293 18.11621094 C34.08591364 21.4242968 39.09257021 24.59904561 44.125 27.75 C51.81812445 32.57143994 59.38219943 37.56350069 66.91870117 42.62548828 C76.05263826 48.74185071 85.33119839 54.62535484 94.63256836 60.48291016 C95.4138208 60.9835498 96.19507324 61.48418945 97 62 C98.07185547 62.50297607 99.14371094 63.00595215 100.24804688 63.52416992 C103.34477579 66.31018198 103.437257 66.77546636 103.72875977 70.7175293 C103.74810013 72.66970302 103.73343602 74.6224017 103.69140625 76.57421875 C103.69003159 77.61262405 103.68865692 78.65102936 103.6872406 79.72090149 C103.67817916 81.91910066 103.65453724 84.11728089 103.61743164 86.31518555 C103.56297898 89.65809463 103.55590057 92.99849239 103.55664062 96.34179688 C103.54188065 98.48179213 103.52438941 100.62177063 103.50390625 102.76171875 C103.50056778 103.75266037 103.49722931 104.74360199 103.49378967 105.76457214 C103.26726126 116.9776989 100.08149277 125.24231181 91.9375 133.125 C84.56808838 139.41067462 76.61798573 141.75717561 66.984375 141.3828125 C57.83583429 140.20930859 49.32640618 136.24444847 43.3984375 129.05859375 C42.20798798 127.41258114 41.09502593 125.71097802 40 124 C39.87044922 125.45019531 39.87044922 125.45019531 39.73828125 126.9296875 C38.48503245 138.54235985 35.92336408 147.07206481 27.12109375 155.30859375 C18.58390129 162.11633654 9.65024908 162.78548475 -1 162 C-10.18230028 160.09666605 -17.1062143 154.03129613 -22.73828125 146.75390625 C-27.14612153 139.39095051 -27.01609414 131.26311265 -26 123 C-23.59773169 114.26447888 -17.37766045 108.31894965 -9.81640625 103.65234375 C-3.78738179 100.47257471 1.20153575 99.96826854 8 100 C7.91452408 99.01266876 7.82904816 98.02533752 7.74098206 97.00808716 C6.92903127 87.62503867 6.120017 78.24174081 5.31375217 68.85820198 C4.89932428 64.03603933 4.4839233 59.21396495 4.06616211 54.39208984 C3.66174889 49.72383673 3.26006972 45.05535517 2.86015129 40.38671494 C2.70842375 38.62079648 2.55577163 36.85495717 2.40210152 35.0892067 C1.38566465 23.40058092 0.58313791 11.71841064 0 0 Z M34 58 C34.99 74.17 35.98 90.34 37 107 C38.72645909 104.41031136 39.87109507 102.07347822 41.125 99.25 C45.16395802 91.17208396 51.04498691 86.76274894 59.45703125 83.7109375 C63.31255103 82.63305025 67.00808762 82.25754273 71 82 C67.51559034 78.12743071 63.49164228 75.56717345 59.125 72.8125 C57.6054215 71.84382411 56.08589105 70.87507286 54.56640625 69.90625 C53.80473145 69.42285156 53.04305664 68.93945312 52.25830078 68.44140625 C50.10877697 67.06942911 47.97210935 65.67986037 45.83984375 64.28125 C45.20095215 63.86383545 44.56206055 63.4464209 43.90380859 63.01635742 C42.69775408 62.22783252 41.49357393 61.43643155 40.29150391 60.6418457 C37.38689052 58.61480782 37.38689052 58.61480782 34 58 Z M38 119 C39 122 39 122 39 122 Z"
            transform="translate(26,62)"/>
    </g>
  </g>

</svg>
